<?xml version="1.0" encoding="utf-8"?>
<!-- Generator: Adobe Illustrator 19.1.0, SVG Export Plug-In . SVG Version: 6.00 Build 0)  -->
<svg version="1.1" id="Layer_1" xmlns="http://www.w3.org/2000/svg" xmlns:xlink="http://www.w3.org/1999/xlink" x="0px" y="0px"
	 viewBox="0 0 598 670" style="enable-background:new 0 0 598 670;" xml:space="preserve">
<style type="text/css">
	.st0{fill:#47A2DA;}
	.st1{fill:#4EC6E0;}
	.st2{fill:#FEEB00;}
	.st3{fill:#DCB327;}
	.st4{fill:#FFFFFF;}
	.st5{fill:none;stroke:#000000;stroke-width:11;stroke-miterlimit:10;}
</style>
<path class="st0" d="M168,449.7c-30.4-27.2-43.6-46.6-40.5-68.6c3.1-22,13.7-63,20.9-65.1s48.7-4.2,48.7-4.2l32.2,6.6l20.5,14.8
	l13.6,52.2c0,0-45.8,63.9-61.3,67.8C186.6,457.1,188,467.6,168,449.7z"/>
<path class="st0" d="M447.8,449.7c30.4-27.2,43.6-46.6,40.5-68.6c-3.1-22-13.7-63-20.9-65.1s-48.7-4.2-48.7-4.2l-32.2,6.6
	l-20.5,14.8l-13.6,52.2c0,0,45.8,63.9,61.3,67.8C429.2,457.1,427.8,467.6,447.8,449.7z"/>
<path class="st1" d="M173.9,332.5c-22.7,16.1-32.7,28.5-31.1,44.2c1.7,15.8,8.3,45.7,13.6,47.9c5.2,2.2,35.2,7.7,35.2,7.7l23.5-1.4
	l15.2-8.4l11.2-35.4c0,0-31.6-49.4-42.8-53.7C187.6,329.2,188.8,321.9,173.9,332.5z"/>
<path class="st1" d="M434.3,322.9c22.7,16.1,32.7,28.5,31.1,44.2c-1.7,15.8-8.3,45.7-13.6,47.9c-5.2,2.2-35.2,7.7-35.2,7.7
	l-23.5-1.4l-15.2-8.4l-11.2-35.4c0,0,31.6-49.4,42.8-53.7C420.6,319.5,419.3,312.2,434.3,322.9z"/>
<path class="st0" d="M166.7,71.8c-47.2,8.3-69.1,23.9-69.1,62s6.6,114.9,16.3,126.5c9.6,11.6,66.4,62,66.4,62l45.6,26.3H257
	l28.9-66.8c0,0-50.7-152.7-71.4-176.6S197.8,66.4,166.7,71.8z"/>
<path class="st1" d="M159.1,105.2c-28.2,5.4-41.2,15.6-41.2,40.6s4,75.3,9.7,82.8c5.7,7.6,39.6,40.6,39.6,40.6l27.2,17.2H213
	l17.2-43.8c0,0-30.3-100-42.6-115.7C175.3,111.5,177.6,101.7,159.1,105.2z"/>
<path class="st0" d="M505.4,235.3c35.8-85,49.4-129.2,39.9-144.6s-33.9-35-44.5-23s-68.6,89.8-68.6,89.8l-43.1,68.3l-25,53.9
	l-6.5,77c0,0,78.7-26,101.2-52.2C481.3,278.3,481.8,291.3,505.4,235.3z"/>
<path class="st1" d="M500.8,94.9c-23.8-17.4-6.8,7.1-39.4,31.3s-77.7,85.9-84.2,97.9c-6.5,12-43.9,61.5-43.9,61.5l8.1,48.2
	l11.1,14.9l67.4-28.6c0,0,63.7-131.1,76.8-156.2S516.5,106.3,500.8,94.9z"/>
<ellipse transform="matrix(0.9871 -0.16 0.16 0.9871 -29.9525 48.6131)" class="st2" cx="287" cy="210.3" rx="132.7" ry="99.7"/>
<path d="M172.8,589.3c0,0-38.3,52.3-81.8,64.5c-43.5,12.2,38.7,3.4,71.1-17.7c7-4.6,56.9-51.1,56.9-51.1L172.8,589.3z"/>
<ellipse class="st3" cx="204.5" cy="202.7" rx="49.6" ry="50"/>
<ellipse class="st3" cx="309.3" cy="199.4" rx="49.6" ry="50"/>
<ellipse class="st4" cx="201" cy="196.6" rx="43.9" ry="40.6"/>
<circle class="st4" cx="306.7" cy="195.1" r="42.1"/>
<circle cx="172.8" cy="211.7" r="10.7"/>
<circle cx="287.6" cy="208.9" r="10.7"/>
<path class="st5" d="M263.5,173.5c46.9-16.1,66-24.1,73.3-37.7"/>
<path class="st5" d="M183.5,132.4c6.9,8.4,45.5,48.6,57.9,39.9"/>
<path class="st2" d="M146.6,573.2c2.3,6.2,5,12.1,8.4,17.7c13.6,22.8,50.8,20.1,91.4,2.9c-0.8-0.5-1.7-0.9-2.6-1.3
	C212.6,578.4,176.3,566.2,146.6,573.2z"/>
<path class="st2" d="M348.8,327c11.8,16.3,33.8,42.2,47.7,60.2c-1.2-51-22.8-93.1-60.5-107.9c-37.4-14.7-81.6,1.1-117.1,36.9
	C286.8,318,330.7,302,348.8,327z"/>
<path class="st2" d="M386,458.2c0-0.3-2.2-58.6-33.7-72.9c-31.6-14.3-68.3-26.6-98.2-19.1c-16.1,4.1-51.4,12.5-80.7,19.1
	c-0.8,1.9-1.6,3.8-2.4,5.7c-4.8,12.2-9.1,24-12.9,35.6c9.1-1.6,19.5-2.4,31.6-2.1c67.8,1.9,111.8-14.2,129.9,10.8
	c12.1,16.7,34.9,43.4,48.7,61.4c5-7.7,9.1-15.4,12.2-23.2C382.5,468.5,384.4,463.3,386,458.2z"/>
<path class="st2" d="M323.1,493.7c-31.6-14.3-68.3-26.6-98.2-19.1c-16.6,4.2-53.7,13.1-83.5,19.7c-1.4,10-2.3,19.6-2.4,28.9
	c51.7-1.8,85.9-10.3,101.3,11c8.8,12.1,23.1,29.5,35.6,44.9c26.1-14.9,51.7-34.5,71.7-56.1C342.7,510.7,335,499.1,323.1,493.7z"/>
<path d="M352.3,385.4c31.5,14.2,33.7,72.6,33.7,72.9c7.7-24.3,11.2-48.5,10.6-71c-13.9-17.9-35.9-43.9-47.7-60.2
	c-18.1-25-62.1-9-129.8-10.8c-18.1,18.3-34,41.8-45.5,69.2c29.2-6.5,64.6-15,80.7-19.1C284,358.7,320.7,371.1,352.3,385.4z"/>
<path d="M189.8,424.6c-12.1-0.3-22.6,0.5-31.6,2.1c-8,24.2-13.7,46.8-16.7,67.7c29.8-6.6,66.9-15.5,83.5-19.7
	c29.9-7.5,66.6,4.8,98.2,19.1c11.8,5.4,19.5,16.9,24.5,29.3c7.9-8.5,14.9-17.3,20.7-26.2c-13.8-18-36.6-44.7-48.7-61.4
	C301.5,410.4,257.6,426.4,189.8,424.6z"/>
<path d="M139,523.2c-0.3,18.4,2.1,35.1,7.5,50c29.7-7,66,5.2,97.2,19.3c0.9,0.4,1.7,0.8,2.6,1.3c9.8-4.1,19.7-9.1,29.6-14.7
	c-12.5-15.5-26.9-32.9-35.6-44.9C224.9,512.9,190.7,521.4,139,523.2z"/>
<path class="st5" d="M238.4,280.8c0-3.9,4.1-9.6,8.3-11.3c4.1-1.7,14.5-2.8,14.5-2.8l8.3,2.8c0,0,7.6,7.9,7.6,11.3"/>
</svg>
