<?xml version="1.0" encoding="utf-8"?>
<!-- Generator: Adobe Illustrator 19.1.0, SVG Export Plug-In . SVG Version: 6.00 Build 0)  -->
<svg version="1.1" id="Layer_1" xmlns="http://www.w3.org/2000/svg" xmlns:xlink="http://www.w3.org/1999/xlink" x="0px" y="0px"
	 viewBox="0 0 236 160" style="enable-background:new 0 0 236 160;" xml:space="preserve">
<style type="text/css">
	.st0{fill:none;stroke:#000000;stroke-width:3;stroke-miterlimit:10;}
	.st1{fill:#62CBE6;}
	.st2{fill:#2EA1BC;}
	.st3{fill:#FCEE22;}
	.st4{fill:#CDBC2C;}
	.st5{fill:#FFFFFF;}
</style>
<line class="st0" x1="103.4" y1="106.9" x2="99.5" y2="142.4"/>
<line class="st0" x1="123.7" y1="108.5" x2="124.4" y2="144.2"/>
<path class="st1" d="M43.6,98.4c-14.9-5.9-21.4-10.1-19.9-14.8S30.5,70,34,69.5s23.9-0.9,23.9-0.9L73.7,70l10.1,3.2l6.7,11.3
	c0,0-22.4,13.8-30.1,14.7C52.8,100,53.4,102.3,43.6,98.4z"/>
<path class="st1" d="M180.8,98.4c14.9-5.9,21.4-10.1,19.9-14.8c-1.5-4.8-6.7-13.6-10.3-14.1c-3.6-0.5-23.9-0.9-23.9-0.9L150.7,70
	l-10.1,3.2L134,84.5c0,0,22.4,13.8,30.1,14.7C171.7,100,171,102.3,180.8,98.4z"/>
<path class="st2" d="M46.5,73.1c-11.1,3.5-16.1,6.2-15.2,9.6s4.1,9.9,6.6,10.4c2.6,0.5,17.3,1.7,17.3,1.7l11.5-0.3l7.5-1.8l5.5-7.7
	c0,0-15.5-10.7-21-11.6S53.8,70.8,46.5,73.1z"/>
<path class="st2" d="M181.2,73.1c11.1,3.5,16.1,6.2,15.2,9.6c-0.8,3.4-4.1,9.9-6.6,10.4s-17.3,1.7-17.3,1.7L161,94.4l-7.5-1.8
	l-5.5-7.7c0,0,15.5-10.7,21-11.6S173.9,70.8,181.2,73.1z"/>
<path class="st1" d="M36.2,16.7c-18.5,1.6-27.1,4.6-27.1,12s2.6,22.2,6.4,24.5s26,12,26,12l17.9,5.1h12.2l11.3-12.9
	c0,0-19.9-29.5-28-34.1S48.4,15.6,36.2,16.7z"/>
<path class="st2" d="M39.2,23.9C25.4,25.1,19,27.3,19,32.7S21,49,23.8,50.6c2.8,1.6,19.4,8.8,19.4,8.8l13.3,3.7h9.1l8.5-9.5
	c0,0-14.8-21.6-20.9-25S48.3,23.2,39.2,23.9z"/>
<path class="st1" d="M217.7,45c3.9-16.4,3.3-24.8-4.4-27.5c-7.7-2.7-23.8-5.8-27.3-3.4s-20.2,17.9-20.2,17.9l-10.6,13.5L151.6,56
	l10,14.4c0,0,36.5-6.3,43.7-11.6S215.1,55.8,217.7,45z"/>
<path class="st2" d="M188.5,23.9c13.8,1.2,20.2,3.4,20.2,8.8s-1.9,16.3-4.8,17.9c-2.8,1.6-19.4,8.8-19.4,8.8l-13.3,3.7h-9.1
	l-8.5-9.5c0,0,14.8-21.6,20.9-25C180.6,25.3,179.4,23.2,188.5,23.9z"/>
<circle class="st3" cx="115.5" cy="77.2" r="55.2"/>
<ellipse class="st4" cx="91.2" cy="64.8" rx="24.3" ry="24.5"/>
<ellipse class="st5" cx="91" cy="64.7" rx="21.5" ry="19.9"/>
<ellipse class="st4" cx="142.6" cy="63.2" rx="24.3" ry="24.5"/>
<circle class="st5" cx="142.8" cy="64" r="20.7"/>
<circle cx="99.5" cy="67.8" r="5.2"/>
<circle cx="155.8" cy="66.4" r="5.2"/>
<path class="st0" d="M101.2,25.1C87.6,37.6,88.7,44.8,69.4,44.8"/>
<path class="st0" d="M121.9,25.1c20.7,17.1,30.8,18.6,29.3,18.2"/>
<path class="st0" d="M106.4,103.9c0-1.9,1.7-4.7,3.3-5.5c1.7-0.8,5.8-1.4,5.8-1.4l3.3,1.4c0,0,3,3.9,3,5.5"/>
</svg>
